<svg xmlns="http://www.w3.org/2000/svg" width="32" height="25" viewBox="0 0 32 25">
    <defs>
        <clipPath id="clip-path">
            <path id="Rectangle_247" fill="#f16600" stroke="#707070" d="M0 0H32V24H0z" transform="translate(800 603.579)"/>
        </clipPath>
        <style>
            .cls-3{fill:#f16600}.cls-4{fill:#fff}
        </style>
    </defs>
    <g id="Group_1460" transform="translate(-164 -609)">
        <g id="Mask_Group_47" clip-path="url(#clip-path)" transform="translate(-636 6.421)">
            <g id="help" transform="translate(804.174 604)">
                <path id="Path_164" d="M27.668 20.022a7.669 7.669 0 0 0-4.206-6.829 10.429 10.429 0 0 1-10.268 10.269A7.648 7.648 0 0 0 23.912 26.6l3.722 1.029-1.034-3.717a7.618 7.618 0 0 0 1.063-3.89zm0 0" class="cls-3" transform="translate(-4.015 -4.015)"/>
            </g>
        </g>
        <g id="Group_1459" transform="translate(-25 .035)">
            <path id="Union_2" d="M4.222 17.4L.076 18.652l1.351-4.143a9.5 9.5 0 1 1 2.8 2.891z" class="cls-3" transform="translate(192 608.965)"/>
            <circle id="Ellipse_408" cx="1.5" cy="1.5" r="1.5" class="cls-4" transform="translate(195 616.965)"/>
            <circle id="Ellipse_409" cx="1.5" cy="1.5" r="1.5" class="cls-4" transform="translate(200 616.965)"/>
            <circle id="Ellipse_410" cx="1.5" cy="1.5" r="1.5" class="cls-4" transform="translate(205 616.965)"/>
        </g>
    </g>
</svg>
