<svg xmlns="http://www.w3.org/2000/svg" width="24" height="24" viewBox="0 0 24 24">
    <defs>
        <clipPath id="0alk5s5ora">
            <path fill="#707070" stroke="#3b0e8a" d="M0 0H24V24H0z"/>
        </clipPath>
    </defs>
    <g clip-path="url(#0alk5s5ora)">
        <g>
            <g>
                <path fill="#707070" d="M19.481 15.515a11.3 11.3 0 0 0-4.336-2.86 7.041 7.041 0 0 0 2.864-5.717A6.781 6.781 0 0 0 11.411 0a6.781 6.781 0 0 0-6.6 6.938 7.041 7.041 0 0 0 2.865 5.717 11.3 11.3 0 0 0-4.336 2.86A12.24 12.24 0 0 0 0 24h1.783a9.9 9.9 0 0 1 9.628-10.125A9.9 9.9 0 0 1 21.04 24h1.783a12.241 12.241 0 0 0-3.342-8.485zM11.411 12A4.949 4.949 0 0 1 6.6 6.938a4.949 4.949 0 0 1 4.814-5.062 4.949 4.949 0 0 1 4.814 5.063A4.949 4.949 0 0 1 11.411 12z" transform="translate(-.035)"/>
            </g>
        </g>
    </g>
</svg>
