<svg xmlns="http://www.w3.org/2000/svg" width="18" height="18" viewBox="0 0 18 18">
    <defs>
        <clipPath id="lrenlb8d8a">
            <path fill="#fff" stroke="#707070" d="M0 0H18V18H0z" transform="translate(813 679)"/>
        </clipPath>
    </defs>
    <g clip-path="url(#lrenlb8d8a)" transform="translate(-813 -679)">
        <g>
            <path d="M12.922 8.7a.422.422 0 0 0-.422.422v7.967a.422.422 0 1 0 .843 0V9.117a.422.422 0 0 0-.421-.417zm0 0" transform="translate(814.69 679) translate(-3.125 -2.174)"/>
            <path d="M6.289 8.7a.422.422 0 0 0-.422.422v7.967a.422.422 0 1 0 .843 0V9.117a.422.422 0 0 0-.421-.417zm0 0" transform="translate(814.69 679) translate(-1.467 -2.174)"/>
            <path d="M1.2 5.359v10.386a2.326 2.326 0 0 0 .618 1.6A2.076 2.076 0 0 0 3.322 18H11.3a2.075 2.075 0 0 0 1.506-.651 2.326 2.326 0 0 0 .618-1.6V5.359a1.61 1.61 0 0 0-.413-3.167H10.85v-.527A1.656 1.656 0 0 0 9.181 0H5.438a1.656 1.656 0 0 0-1.67 1.665v.527H1.61a1.61 1.61 0 0 0-.41 3.167zm10.1 11.8H3.322a1.335 1.335 0 0 1-1.282-1.414V5.4h10.539v10.345a1.335 1.335 0 0 1-1.279 1.412zM4.612 1.665a.812.812 0 0 1 .826-.822h3.743a.812.812 0 0 1 .826.822v.527h-5.4zm-3 1.37h11.4a.759.759 0 0 1 0 1.518H1.61a.759.759 0 1 1 0-1.518zm0 0" transform="translate(814.69 679)"/>
            <path d="M9.605 8.7a.422.422 0 0 0-.422.422v7.967a.422.422 0 1 0 .843 0V9.117a.422.422 0 0 0-.421-.417zm0 0" transform="translate(814.69 679) translate(-2.296 -2.174)"/>
        </g>
    </g>
</svg>
